<?xml version="1.0" encoding="UTF-8"?>
<svg xmlns="http://www.w3.org/2000/svg" xmlns:xlink="http://www.w3.org/1999/xlink" width="211px" height="60px" viewBox="0 0 211 60" version="1.1">
<g id="surface1">
<path style=" stroke:none;fill-rule:nonzero;fill:rgb(0%,0%,0%);fill-opacity:1;" d="M 10.859375 0.210938 C 6.539062 2.019531 1.792969 7.132812 0.292969 13.550781 C -1.605469 21.683594 6.296875 25.125 6.945312 23.996094 C 7.707031 22.671875 5.53125 22.222656 5.082031 18.003906 C 4.5 12.554688 7.03125 6.464844 10.214844 3.792969 C 10.808594 3.296875 10.78125 3.988281 10.78125 5.265625 C 10.78125 7.550781 10.652344 28.066406 10.652344 32.347656 C 10.652344 38.140625 10.414062 39.972656 9.984375 41.78125 C 9.550781 43.613281 8.851562 44.847656 9.382812 45.328125 C 9.972656 45.859375 12.5 44.589844 13.964844 42.546875 C 15.71875 40.09375 16.332031 37.148438 16.441406 33.949219 C 16.574219 30.09375 16.570312 23.976562 16.574219 20.488281 C 16.582031 17.289062 16.628906 7.917969 16.519531 2.28125 C 16.492188 0.902344 12.664062 -0.550781 10.859375 0.207031 M 164.214844 27.324219 C 164.074219 30.335938 163.410156 32.691406 162.582031 34.351562 C 160.984375 37.566406 157.664062 38.566406 156.253906 33.941406 C 155.484375 31.425781 155.449219 27.214844 156 23.703125 C 156.5625 20.121094 158.132812 17.414062 160.734375 17.660156 C 163.296875 17.898438 164.496094 21.207031 164.214844 27.324219 Z M 120.992188 46.011719 C 120.957031 51.015625 120.171875 55.40625 118.484375 56.679688 C 116.089844 58.488281 112.875 57.132812 113.542969 53.480469 C 114.128906 50.246094 116.917969 46.945312 121 42.914062 C 121 42.914062 121.007812 43.835938 120.992188 46.011719 Z M 120.339844 27.296875 C 120.191406 30.039062 119.480469 32.792969 118.707031 34.351562 C 117.109375 37.566406 113.761719 38.570312 112.378906 33.945312 C 111.429688 30.78125 111.65625 26.6875 112.125 24.109375 C 112.734375 20.765625 114.207031 17.660156 116.855469 17.660156 C 119.433594 17.660156 120.703125 20.488281 120.339844 27.296875 Z M 95.300781 27.253906 C 95.144531 30.160156 94.578125 32.585938 93.667969 34.351562 C 92.023438 37.542969 88.773438 38.558594 87.339844 33.945312 C 86.304688 30.617188 86.65625 26.082031 87.085938 23.628906 C 87.726562 19.992188 89.324219 17.414062 91.820312 17.660156 C 94.382812 17.910156 95.628906 21.207031 95.300781 27.253906 Z M 210.046875 30.648438 C 209.417969 30.648438 209.132812 31.292969 208.898438 32.382812 C 208.078125 36.167969 207.214844 37.019531 206.101562 37.019531 C 204.859375 37.019531 203.742188 35.148438 203.457031 31.394531 C 203.230469 28.445312 203.265625 23.015625 203.554688 17.613281 C 203.613281 16.503906 203.308594 15.40625 200.335938 14.324219 C 199.054688 13.859375 197.195312 13.175781 196.269531 15.414062 C 193.65625 21.734375 192.632812 26.753906 192.390625 28.792969 C 192.378906 28.898438 192.25 28.921875 192.226562 28.675781 C 192.074219 27.042969 191.730469 24.074219 191.6875 17.839844 C 191.679688 16.621094 191.421875 15.585938 190.082031 14.738281 C 189.210938 14.1875 186.566406 13.214844 185.617188 14.375 C 184.792969 15.320312 183.835938 17.867188 182.847656 20.886719 C 182.039062 23.339844 181.476562 25 181.476562 25 C 181.476562 25 181.488281 18.378906 181.5 15.867188 C 181.503906 14.917969 180.851562 14.605469 180.65625 14.546875 C 179.777344 14.289062 178.039062 13.863281 177.304688 13.863281 C 176.394531 13.863281 176.171875 14.371094 176.171875 15.113281 C 176.171875 15.210938 176.027344 23.832031 176.027344 29.859375 C 176.027344 30.121094 176.027344 30.410156 176.03125 30.710938 C 175.527344 33.484375 173.898438 37.246094 172.125 37.246094 C 170.347656 37.246094 169.511719 35.671875 169.511719 28.484375 C 169.511719 24.292969 169.636719 22.46875 169.699219 19.4375 C 169.734375 17.6875 169.804688 16.347656 169.800781 16.042969 C 169.785156 15.109375 168.171875 14.640625 167.421875 14.464844 C 166.671875 14.289062 166.015625 14.222656 165.503906 14.25 C 164.78125 14.292969 164.269531 14.769531 164.269531 15.421875 C 164.269531 15.773438 164.273438 16.4375 164.273438 16.4375 C 163.339844 14.972656 161.839844 13.953125 160.84375 13.65625 C 158.15625 12.855469 155.351562 13.566406 153.238281 16.527344 C 151.554688 18.882812 150.542969 21.550781 150.144531 25.378906 C 149.851562 28.179688 149.945312 31.019531 150.464844 33.421875 C 149.839844 36.132812 148.675781 37.246094 147.402344 37.246094 C 145.554688 37.246094 144.214844 34.222656 144.371094 29 C 144.476562 25.566406 145.160156 23.15625 145.910156 19.667969 C 146.230469 18.179688 145.972656 17.402344 145.320312 16.65625 C 144.722656 15.972656 143.449219 15.621094 141.617188 16.054688 C 140.3125 16.359375 138.445312 16.6875 136.738281 16.941406 C 136.738281 16.941406 136.839844 16.53125 136.925781 15.804688 C 137.371094 12 133.242188 12.308594 131.921875 13.523438 C 131.136719 14.25 130.601562 15.105469 130.398438 16.644531 C 130.078125 19.085938 132.066406 20.238281 132.066406 20.238281 C 131.414062 23.226562 129.8125 27.132812 128.164062 29.957031 C 127.277344 31.46875 126.601562 32.59375 125.730469 33.785156 C 125.726562 33.339844 125.722656 32.894531 125.722656 32.453125 C 125.703125 26.167969 125.785156 21.21875 125.820312 19.4375 C 125.859375 17.691406 125.925781 16.382812 125.921875 16.078125 C 125.914062 15.398438 125.515625 15.140625 124.6875 14.8125 C 123.957031 14.523438 123.089844 14.324219 122.191406 14.253906 C 121.058594 14.164062 120.375 14.769531 120.390625 15.480469 C 120.394531 15.613281 120.394531 16.441406 120.394531 16.441406 C 119.464844 14.972656 117.964844 13.953125 116.964844 13.65625 C 114.28125 12.855469 111.476562 13.566406 109.359375 16.527344 C 107.679688 18.882812 106.578125 22.1875 106.265625 25.351562 C 105.976562 28.300781 106.03125 30.808594 106.425781 32.917969 C 106 35.035156 104.769531 37.246094 103.382812 37.246094 C 101.605469 37.246094 100.597656 35.671875 100.597656 28.484375 C 100.597656 24.292969 100.722656 22.46875 100.785156 19.4375 C 100.820312 17.691406 100.886719 16.347656 100.882812 16.042969 C 100.871094 15.109375 99.257812 14.640625 98.507812 14.464844 C 97.722656 14.285156 97.046875 14.21875 96.527344 14.257812 C 95.839844 14.308594 95.355469 14.921875 95.355469 15.382812 L 95.355469 16.441406 C 94.425781 14.972656 92.925781 13.953125 91.929688 13.65625 C 89.242188 12.855469 86.453125 13.578125 84.320312 16.527344 C 82.933594 18.453125 81.808594 20.585938 81.230469 25.308594 C 81.0625 26.675781 80.988281 27.953125 80.996094 29.148438 C 80.445312 32.539062 77.996094 36.449219 75.996094 36.449219 C 74.824219 36.449219 73.707031 34.175781 73.707031 29.328125 C 73.707031 22.871094 74.105469 13.675781 74.175781 12.789062 C 74.175781 12.789062 76.703125 12.746094 77.195312 12.738281 C 78.457031 12.726562 79.597656 12.757812 81.277344 12.667969 C 82.121094 12.625 82.933594 9.597656 82.0625 9.222656 C 81.667969 9.054688 78.882812 8.90625 77.777344 8.882812 C 76.847656 8.859375 74.261719 8.667969 74.261719 8.667969 C 74.261719 8.667969 74.496094 2.566406 74.550781 1.921875 C 74.59375 1.382812 73.902344 1.109375 73.503906 0.941406 C 72.535156 0.53125 71.667969 0.332031 70.640625 0.121094 C 69.222656 -0.171875 68.578125 0.117188 68.453125 1.3125 C 68.265625 3.132812 68.167969 8.460938 68.167969 8.460938 C 67.125 8.460938 63.570312 8.257812 62.527344 8.257812 C 61.5625 8.257812 60.515625 12.425781 61.855469 12.476562 C 63.394531 12.535156 66.074219 12.585938 67.851562 12.640625 C 67.851562 12.640625 67.773438 21.984375 67.773438 24.871094 C 67.773438 25.179688 67.777344 25.472656 67.777344 25.761719 C 66.796875 30.867188 63.351562 33.625 63.351562 33.625 C 64.09375 30.246094 62.582031 27.710938 59.855469 25.5625 C 58.855469 24.773438 56.875 23.273438 54.65625 21.632812 C 54.65625 21.632812 55.941406 20.367188 57.078125 17.816406 C 57.886719 16.011719 57.921875 13.945312 55.941406 13.492188 C 52.667969 12.738281 49.972656 15.144531 49.167969 17.710938 C 48.546875 19.699219 48.878906 21.175781 50.097656 22.710938 C 50.1875 22.820312 50.285156 22.9375 50.382812 23.050781 C 49.644531 24.476562 48.632812 26.394531 47.773438 27.882812 C 45.386719 32.011719 43.585938 35.28125 42.226562 35.28125 C 41.136719 35.28125 41.152344 31.964844 41.152344 28.859375 C 41.152344 26.179688 41.347656 22.15625 41.507812 17.988281 C 41.558594 16.609375 40.871094 15.824219 39.71875 15.113281 C 39.015625 14.679688 37.519531 13.832031 36.652344 13.832031 C 35.355469 13.832031 31.613281 14.007812 28.078125 24.25 C 27.632812 25.539062 26.757812 27.890625 26.757812 27.890625 L 26.832031 15.578125 C 26.832031 15.289062 26.679688 15.007812 26.328125 14.816406 C 25.730469 14.492188 24.140625 13.832031 22.726562 13.832031 C 22.050781 13.832031 21.714844 14.144531 21.714844 14.769531 L 21.589844 34.039062 C 21.589844 35.5 21.628906 37.210938 21.773438 37.957031 C 21.917969 38.703125 22.152344 39.3125 22.441406 39.675781 C 22.726562 40.035156 23.0625 40.3125 23.613281 40.425781 C 24.125 40.53125 26.929688 40.890625 27.074219 39.820312 C 27.25 38.53125 27.257812 37.140625 28.730469 31.953125 C 31.023438 23.875 34.011719 19.933594 35.417969 18.535156 C 35.664062 18.289062 35.941406 18.277344 35.929688 18.675781 C 35.871094 20.445312 35.660156 24.871094 35.515625 28.632812 C 35.136719 38.691406 36.964844 40.558594 39.574219 40.558594 C 41.574219 40.558594 44.390625 38.570312 47.410156 33.535156 C 49.292969 30.398438 51.121094 27.324219 52.433594 25.109375 C 53.351562 25.957031 54.378906 26.871094 55.402344 27.84375 C 57.789062 30.109375 58.570312 32.265625 58.050781 34.308594 C 57.65625 35.871094 56.160156 37.480469 53.496094 35.914062 C 52.71875 35.457031 52.386719 35.105469 51.605469 34.589844 C 51.1875 34.316406 50.546875 34.234375 50.164062 34.523438 C 49.164062 35.273438 48.59375 36.234375 48.269531 37.417969 C 47.953125 38.570312 49.105469 39.183594 50.300781 39.714844 C 51.332031 40.175781 53.546875 40.589844 54.957031 40.636719 C 60.457031 40.820312 64.863281 37.976562 67.933594 30.644531 C 68.480469 36.976562 70.816406 40.5625 74.878906 40.5625 C 77.59375 40.5625 80.3125 37.050781 81.503906 33.59375 C 81.847656 35.003906 82.351562 36.226562 83.003906 37.261719 C 86.132812 42.226562 92.203125 41.15625 95.25 36.945312 C 96.195312 35.640625 96.335938 35.171875 96.335938 35.171875 C 96.78125 39.152344 99.980469 40.542969 101.816406 40.542969 C 103.867188 40.542969 105.988281 39.570312 107.472656 36.222656 C 107.644531 36.585938 107.835938 36.933594 108.042969 37.261719 C 111.171875 42.226562 117.242188 41.15625 120.289062 36.945312 C 120.433594 36.746094 120.558594 36.566406 120.667969 36.40625 L 120.757812 39.019531 C 120.757812 39.019531 119.015625 40.617188 117.949219 41.597656 C 113.25 45.914062 109.679688 49.1875 109.414062 53 C 109.078125 57.863281 113.015625 59.671875 115.996094 59.90625 C 119.160156 60.160156 121.871094 58.410156 123.535156 55.960938 C 125 53.804688 125.960938 49.164062 125.890625 44.582031 C 125.863281 42.746094 125.816406 40.410156 125.777344 37.910156 C 127.429688 35.988281 129.292969 33.5625 131.003906 30.722656 C 132.871094 27.625 134.871094 23.46875 135.898438 20.234375 C 135.898438 20.234375 137.636719 20.25 139.492188 20.125 C 140.085938 20.085938 140.253906 20.207031 140.144531 20.644531 C 140.011719 21.171875 137.800781 29.710938 139.820312 35.402344 C 141.199219 39.296875 144.316406 40.550781 146.160156 40.550781 C 148.324219 40.550781 150.390625 38.914062 151.5 36.488281 C 151.632812 36.757812 151.773438 37.019531 151.925781 37.261719 C 155.054688 42.226562 161.101562 41.152344 164.171875 36.941406 C 164.863281 35.992188 165.257812 35.171875 165.257812 35.171875 C 165.914062 39.289062 169.113281 40.5625 170.945312 40.5625 C 172.855469 40.5625 174.667969 39.78125 176.136719 36.296875 C 176.199219 37.832031 176.292969 39.085938 176.445312 39.480469 C 176.539062 39.722656 177.082031 40.023438 177.476562 40.171875 C 179.222656 40.820312 181.003906 40.511719 181.660156 40.378906 C 182.117188 40.289062 182.472656 39.921875 182.523438 38.972656 C 182.652344 36.488281 182.570312 32.3125 183.324219 29.207031 C 184.589844 24 185.765625 21.980469 186.324219 20.980469 C 186.636719 20.417969 186.992188 20.324219 187.003906 20.917969 C 187.03125 22.121094 187.089844 25.644531 187.578125 30.378906 C 187.9375 33.859375 188.417969 35.917969 188.789062 36.570312 C 189.839844 38.433594 191.140625 38.523438 192.199219 38.523438 C 192.875 38.523438 194.285156 38.335938 194.15625 37.152344 C 194.097656 36.574219 194.203125 33 195.449219 27.871094 C 196.261719 24.519531 197.617188 21.492188 198.105469 20.382812 C 198.289062 19.976562 198.371094 20.296875 198.367188 20.359375 C 198.265625 22.667969 198.035156 30.214844 198.972656 34.34375 C 200.246094 39.9375 203.929688 40.5625 205.210938 40.5625 C 207.949219 40.5625 210.191406 38.476562 210.945312 32.988281 C 211.128906 31.667969 210.859375 30.644531 210.050781 30.644531 "/>
</g>
</svg>
