<?xml version="1.0" encoding="UTF-8"?>
<svg xmlns="http://www.w3.org/2000/svg" xmlns:xlink="http://www.w3.org/1999/xlink" width="130px" height="25px" viewBox="0 0 130 25" version="1.1">
<g id="surface1">
<path style=" stroke:none;fill-rule:nonzero;fill:rgb(4.705882%,62.352941%,70.980392%);fill-opacity:1;" d="M 130 10.707031 C 130 15.355469 122.988281 18.632812 113.296875 18.632812 C 103.609375 18.632812 96.597656 15.355469 96.597656 10.707031 C 96.597656 6.363281 104.605469 3.316406 113.296875 3.316406 C 121.992188 3.316406 130 6.363281 130 10.707031 M 104.765625 10.726562 C 104.765625 13.203125 108.609375 15.011719 113.296875 15.011719 C 117.984375 15.011719 121.832031 13.203125 121.832031 10.726562 C 121.832031 8.746094 117.984375 6.9375 113.296875 6.9375 C 108.609375 6.9375 104.765625 8.746094 104.765625 10.726562 "/>
<path style=" stroke:none;fill-rule:nonzero;fill:rgb(71.764706%,83.529412%,16.862745%);fill-opacity:1;" d="M 21.953125 12.9375 L 21.953125 13 C 22.019531 13.601562 22.957031 13.960938 24.554688 13.992188 L 41.746094 13.992188 C 43.027344 12.734375 43.746094 11.335938 43.746094 9.863281 C 43.746094 4.429688 33.996094 0.0195312 21.953125 0 L 21.953125 12.9375 "/>
<path style=" stroke:none;fill-rule:nonzero;fill:rgb(92.941176%,67.45098%,3.529412%);fill-opacity:1;" d="M 21.886719 18.628906 C 14.609375 18.359375 11.605469 16.824219 11.605469 13.359375 L 11.605469 1.15625 C 4.703125 2.8125 0 6.089844 0 9.863281 C 0 15.308594 9.796875 19.726562 21.875 19.726562 C 25.441406 19.726562 28.804688 19.339844 31.777344 18.660156 L 23.625 18.660156 C 23.085938 18.660156 22.488281 18.660156 21.886719 18.628906 "/>
<path style=" stroke:none;fill-rule:nonzero;fill:rgb(4.705882%,62.352941%,70.980392%);fill-opacity:1;" d="M 41.742188 13.992188 L 24.558594 13.992188 C 22.953125 13.960938 22.019531 13.601562 21.953125 13 L 21.953125 0 C 21.925781 0 21.902344 0 21.875 0 C 18.160156 0 14.664062 0.417969 11.605469 1.152344 L 11.605469 13.359375 C 11.605469 16.820312 14.609375 18.359375 21.886719 18.628906 C 22.488281 18.65625 23.085938 18.65625 23.625 18.65625 L 31.773438 18.65625 C 36.152344 17.65625 39.675781 16.007812 41.742188 13.992188 "/>
<path style=" stroke:none;fill-rule:nonzero;fill:rgb(4.705882%,62.352941%,70.980392%);fill-opacity:1;" d="M 74.195312 10.722656 C 74.195312 15.40625 67.132812 18.707031 57.367188 18.707031 C 47.601562 18.707031 40.539062 15.40625 40.539062 10.722656 C 40.539062 6.34375 48.613281 3.273438 57.367188 3.273438 C 66.128906 3.273438 74.195312 6.34375 74.195312 10.722656 M 48.773438 10.742188 C 48.773438 13.238281 52.648438 15.058594 57.367188 15.058594 C 62.085938 15.058594 65.960938 13.238281 65.960938 10.742188 C 65.960938 8.746094 62.085938 6.917969 57.367188 6.917969 C 52.648438 6.917969 48.773438 8.746094 48.773438 10.742188 "/>
<path style=" stroke:none;fill-rule:nonzero;fill:rgb(4.705882%,62.352941%,70.980392%);fill-opacity:1;" d="M 101.945312 20.570312 L 101.945312 11.152344 C 101.960938 10.984375 101.972656 10.816406 101.972656 10.648438 C 101.972656 10.5 101.960938 10.351562 101.945312 10.207031 L 101.945312 10.164062 C 101.941406 10.164062 101.941406 10.164062 101.941406 10.164062 C 101.371094 6.082031 93.632812 3.257812 85.273438 3.257812 C 76.582031 3.257812 68.570312 6.304688 68.570312 10.648438 C 68.570312 15.296875 75.582031 18.574219 85.273438 18.574219 C 88.492188 18.574219 91.414062 18.214844 93.882812 17.558594 L 93.882812 20.390625 C 93.832031 20.878906 93.070312 21.175781 91.761719 21.195312 L 77.761719 21.195312 C 79.445312 22.839844 82.316406 24.183594 85.886719 25 L 93.9375 24.976562 C 99.871094 24.753906 102.316406 23.503906 101.945312 20.570312 M 85.273438 14.953125 C 80.585938 14.953125 76.742188 13.144531 76.742188 10.667969 C 76.742188 8.6875 80.585938 6.878906 85.273438 6.878906 C 89.960938 6.878906 93.804688 8.6875 93.804688 10.667969 C 93.804688 13.144531 89.960938 14.953125 85.273438 14.953125 "/>
<path style=" stroke:none;fill-rule:nonzero;fill:rgb(13.333333%,11.764706%,12.156863%);fill-opacity:1;" d="M 19.101562 9.136719 L 19.09375 9.109375 C 19.082031 9.0625 19.121094 9.007812 19.222656 8.949219 C 19.316406 8.902344 19.367188 8.867188 19.367188 8.824219 C 19.367188 8.777344 19.304688 8.746094 19.171875 8.746094 C 19.101562 8.746094 19.015625 8.757812 18.96875 8.773438 L 18.917969 8.714844 C 18.984375 8.691406 19.101562 8.675781 19.210938 8.675781 C 19.449219 8.675781 19.554688 8.742188 19.554688 8.8125 C 19.554688 8.875 19.476562 8.921875 19.375 8.976562 C 19.289062 9.023438 19.253906 9.0625 19.261719 9.109375 L 19.261719 9.136719 Z M 19.175781 9.324219 C 19.105469 9.324219 19.054688 9.296875 19.054688 9.265625 C 19.054688 9.230469 19.109375 9.207031 19.175781 9.207031 C 19.253906 9.207031 19.300781 9.230469 19.300781 9.265625 C 19.300781 9.296875 19.253906 9.324219 19.175781 9.324219 Z M 19.175781 9.324219 "/>
<path style=" stroke:none;fill-rule:nonzero;fill:rgb(4.705882%,62.352941%,70.980392%);fill-opacity:1;" d="M 122.164062 18.277344 L 122.164062 18.617188 L 122.058594 18.617188 L 122.058594 18.277344 L 121.789062 18.277344 L 121.789062 18.230469 L 122.433594 18.230469 L 122.433594 18.277344 Z M 122.164062 18.277344 "/>
<path style=" stroke:none;fill-rule:nonzero;fill:rgb(4.705882%,62.352941%,70.980392%);fill-opacity:1;" d="M 123.5625 18.617188 L 123.457031 18.617188 L 123.457031 18.351562 C 123.457031 18.304688 123.378906 18.265625 123.273438 18.265625 C 123.171875 18.265625 123.09375 18.304688 123.09375 18.351562 L 123.09375 18.617188 L 122.988281 18.617188 L 122.988281 18.351562 C 122.988281 18.304688 122.910156 18.265625 122.800781 18.265625 C 122.699219 18.265625 122.617188 18.304688 122.617188 18.351562 L 122.617188 18.617188 L 122.511719 18.617188 L 122.511719 18.351562 C 122.511719 18.28125 122.640625 18.222656 122.800781 18.222656 C 122.90625 18.222656 122.992188 18.246094 123.039062 18.28125 C 123.085938 18.246094 123.171875 18.222656 123.273438 18.222656 C 123.4375 18.222656 123.5625 18.28125 123.5625 18.351562 L 123.5625 18.617188 "/>
<path style=" stroke:none;fill-rule:nonzero;fill:rgb(4.705882%,62.352941%,70.980392%);fill-opacity:1;" d="M 21.957031 18.609375 C 17.25 18.425781 14.371094 17.714844 12.917969 16.378906 C 12.464844 15.960938 12.261719 15.679688 11.964844 15.066406 C 11.730469 14.585938 11.730469 14.546875 11.691406 7.875 L 11.65625 1.160156 L 12.601562 0.964844 C 15.199219 0.421875 17.847656 0.121094 20.691406 0.046875 L 21.902344 0.0117188 L 21.902344 13.1875 L 22.207031 13.449219 C 22.460938 13.667969 22.609375 13.734375 23.140625 13.855469 L 23.773438 14 L 32.703125 14.015625 L 41.628906 14.03125 L 41.242188 14.375 C 39.445312 15.984375 36.21875 17.492188 32.566406 18.425781 L 31.71875 18.644531 L 27.054688 18.636719 C 24.488281 18.632812 22.195312 18.621094 21.957031 18.609375 Z M 19.296875 9.089844 C 19.261719 9.078125 19.203125 9.105469 19.160156 9.152344 C 19.101562 9.222656 19.117188 9.226562 19.222656 9.179688 C 19.296875 9.144531 19.328125 9.105469 19.296875 9.089844 Z M 19.636719 8.8125 C 19.640625 8.792969 19.589844 8.777344 19.53125 8.777344 C 19.472656 8.777344 19.425781 8.824219 19.425781 8.886719 C 19.425781 8.976562 19.449219 8.980469 19.53125 8.921875 C 19.589844 8.882812 19.636719 8.832031 19.636719 8.8125 Z M 19.316406 8.726562 C 19.316406 8.703125 19.269531 8.679688 19.207031 8.679688 C 19.148438 8.679688 19.101562 8.703125 19.101562 8.726562 C 19.101562 8.753906 19.148438 8.777344 19.207031 8.777344 C 19.269531 8.777344 19.316406 8.753906 19.316406 8.726562 Z M 19.316406 8.726562 "/>
<path style=" stroke:none;fill-rule:nonzero;fill:rgb(4.705882%,62.352941%,70.980392%);fill-opacity:1;" d="M 21.417969 18.585938 C 20.097656 18.527344 18.332031 18.34375 17.3125 18.160156 C 14.269531 17.609375 12.695312 16.679688 11.914062 14.972656 C 11.753906 14.625 11.730469 13.878906 11.695312 7.875 L 11.65625 1.160156 L 12.601562 0.964844 C 15.1875 0.421875 17.863281 0.117188 20.636719 0.046875 L 21.902344 0.0117188 L 21.90625 6.59375 C 21.910156 12.898438 21.917969 13.183594 22.109375 13.371094 C 22.351562 13.609375 22.789062 13.796875 23.359375 13.914062 C 23.761719 13.996094 24.382812 14.003906 32.710938 14.015625 L 41.628906 14.03125 L 41.210938 14.40625 C 39.445312 15.984375 36.242188 17.480469 32.617188 18.417969 L 31.746094 18.644531 L 27.066406 18.636719 C 24.496094 18.632812 21.953125 18.609375 21.417969 18.585938 Z M 19.488281 8.839844 C 19.453125 8.824219 19.429688 8.851562 19.433594 8.902344 C 19.4375 8.960938 19.464844 8.96875 19.5 8.933594 C 19.53125 8.898438 19.527344 8.855469 19.488281 8.839844 Z M 19.488281 8.839844 "/>
<path style=" stroke:none;fill-rule:nonzero;fill:rgb(4.705882%,62.352941%,70.980392%);fill-opacity:1;" d="M 21.472656 18.589844 C 15.347656 18.3125 12.355469 17.027344 11.777344 14.421875 C 11.703125 14.101562 11.664062 11.613281 11.664062 7.539062 L 11.664062 1.160156 L 12.605469 0.960938 C 15.1875 0.421875 17.863281 0.117188 20.636719 0.046875 L 21.902344 0.0117188 L 21.90625 6.546875 C 21.90625 10.953125 21.941406 13.136719 22.019531 13.261719 C 22.167969 13.507812 22.664062 13.75 23.28125 13.890625 L 23.789062 14 L 41.625 14.03125 L 41.238281 14.382812 C 39.511719 15.9375 36.464844 17.382812 32.902344 18.339844 L 31.769531 18.644531 L 27.078125 18.636719 C 24.5 18.632812 21.976562 18.613281 21.472656 18.589844 Z M 21.472656 18.589844 "/>
</g>
</svg>
