<?xml version="1.0" encoding="UTF-8"?>
<svg xmlns="http://www.w3.org/2000/svg" xmlns:xlink="http://www.w3.org/1999/xlink" width="20px" height="20px" viewBox="0 0 20 20" version="1.1">
<g id="surface1">
<path style=" stroke:none;fill-rule:nonzero;fill:rgb(0%,0%,0%);fill-opacity:1;" d="M 18.75 8.75 L 1.25 8.75 C 0.558594 8.75 0 9.308594 0 10 C 0 10.691406 0.558594 11.25 1.25 11.25 L 18.75 11.25 C 19.441406 11.25 20 10.691406 20 10 C 20 9.308594 19.441406 8.75 18.75 8.75 Z M 18.75 8.75 "/>
<path style=" stroke:none;fill-rule:nonzero;fill:rgb(0%,0%,0%);fill-opacity:1;" d="M 1.25 5.417969 L 18.75 5.417969 C 19.441406 5.417969 20 4.855469 20 4.167969 C 20 3.476562 19.441406 2.917969 18.75 2.917969 L 1.25 2.917969 C 0.558594 2.917969 0 3.476562 0 4.167969 C 0 4.855469 0.558594 5.417969 1.25 5.417969 Z M 1.25 5.417969 "/>
<path style=" stroke:none;fill-rule:nonzero;fill:rgb(0%,0%,0%);fill-opacity:1;" d="M 18.75 14.582031 L 1.25 14.582031 C 0.558594 14.582031 0 15.144531 0 15.832031 C 0 16.523438 0.558594 17.082031 1.25 17.082031 L 18.75 17.082031 C 19.441406 17.082031 20 16.523438 20 15.832031 C 20 15.144531 19.441406 14.582031 18.75 14.582031 Z M 18.75 14.582031 "/>
</g>
</svg>
