<?xml version="1.0" encoding="UTF-8"?>
<svg xmlns="http://www.w3.org/2000/svg" xmlns:xlink="http://www.w3.org/1999/xlink" width="20px" height="20px" viewBox="0 0 20 20" version="1.1">
<g id="surface1">
<path style=" stroke:none;fill-rule:nonzero;fill:rgb(0%,0%,0%);fill-opacity:1;" d="M 19.632812 17.871094 L 15.761719 14 C 18.660156 10.128906 17.871094 4.640625 14 1.746094 C 10.128906 -1.152344 4.644531 -0.359375 1.746094 3.507812 C -1.148438 7.378906 -0.359375 12.867188 3.511719 15.761719 C 6.621094 18.089844 10.890625 18.089844 14 15.761719 L 17.871094 19.636719 C 18.359375 20.121094 19.148438 20.121094 19.632812 19.636719 C 20.121094 19.148438 20.121094 18.359375 19.632812 17.871094 Z M 8.785156 15.015625 C 5.347656 15.015625 2.558594 12.226562 2.558594 8.785156 C 2.558594 5.347656 5.347656 2.558594 8.785156 2.558594 C 12.226562 2.558594 15.015625 5.347656 15.015625 8.785156 C 15.011719 12.226562 12.226562 15.011719 8.785156 15.015625 Z M 8.785156 15.015625 "/>
</g>
</svg>
